<svg width="16" height="16" viewBox="0 0 16 16" fill="none" xmlns="http://www.w3.org/2000/svg">
<path opacity="0.01" fill-rule="evenodd" clip-rule="evenodd" d="M0 8C0 3.58172 3.58172 0 8 0C12.4183 0 16 3.58172 16 8C16 12.4183 12.4183 16 8 16C3.58172 16 0 12.4183 0 8Z" fill="#78909C"/>
<mask id="mask0" mask-type="alpha" maskUnits="userSpaceOnUse" x="0" y="0" width="16" height="16">
<path fill-rule="evenodd" clip-rule="evenodd" d="M0 8C0 3.58172 3.58172 0 8 0C12.4183 0 16 3.58172 16 8C16 12.4183 12.4183 16 8 16C3.58172 16 0 12.4183 0 8Z" fill="white"/>
</mask>
<g mask="url(#mask0)">
<rect width="16" height="16" fill="#F7F9F9"/>
<path fill-rule="evenodd" clip-rule="evenodd" d="M0 0H16V16H0V0Z" fill="#FEAC01"/>
<path d="M3 3.58579L6.29289 0.292893C6.68342 -0.0976311 7.31658 -0.0976311 7.70711 0.292893C8.09763 0.683418 8.09763 1.31658 7.70711 1.70711L3.70711 5.70711C3.31658 6.09763 2.68342 6.09763 2.29289 5.70711L0.292893 3.70711C-0.0976311 3.31658 -0.0976311 2.68342 0.292893 2.29289C0.683418 1.90237 1.31658 1.90237 1.70711 2.29289L3 3.58579Z" transform="translate(4 5)" fill="white"/>
<mask id="mask1" mask-type="alpha" maskUnits="userSpaceOnUse" x="4" y="5" width="8" height="6">
<path d="M3 3.58579L6.29289 0.292893C6.68342 -0.0976311 7.31658 -0.0976311 7.70711 0.292893C8.09763 0.683418 8.09763 1.31658 7.70711 1.70711L3.70711 5.70711C3.31658 6.09763 2.68342 6.09763 2.29289 5.70711L0.292893 3.70711C-0.0976311 3.31658 -0.0976311 2.68342 0.292893 2.29289C0.683418 1.90237 1.31658 1.90237 1.70711 2.29289L3 3.58579Z" transform="translate(4 5)" fill="white"/>
</mask>
<g mask="url(#mask1)">
<path fill-rule="evenodd" clip-rule="evenodd" d="M0 0H16V16H0V0Z" fill="white"/>
</g>
</g>
</svg>
