<svg width="86" height="78" viewBox="0 0 86 78" fill="none" xmlns="http://www.w3.org/2000/svg">
<path d="M0.12462 9.15843L0 2.56436L2.11854 3.9076L8.97265 0L11.9635 2.07591L0.12462 9.15843Z" transform="translate(27.6717 57.6831) scale(2)" fill="#448AFF" stroke="black" stroke-opacity="0.49" stroke-width="0.25"/>
<path d="M0.37386 23.5677L0 7.57097L17.1976 0L16.5745 13.7987L8.97265 9.76899V18.9274L0.37386 23.5677Z" transform="translate(26.4257 2) scale(2)" fill="#448AFF" stroke="black" stroke-opacity="0.49" stroke-width="0.25"/>
<path d="M0 9.28054L0.12462 0L14.0821 7.32674L12.7113 25.8878L0.747721 18.0726L7.85107 13.7987L0 9.28054Z" transform="translate(44.1217 21.5379) scale(2)" fill="#FFD740" stroke="black" stroke-opacity="0.49" stroke-width="0.25"/>
<path d="M12.5866 7.9373L20.9362 3.41915L28.9119 7.9373L14.9544 16.3631L0 5.86139L12.2128 0L12.5866 7.9373Z" transform="translate(2 33.2606) scale(2)" fill="#69F0AE" stroke="black" stroke-opacity="0.49" stroke-width="0.25"/>
<path d="M0.49848 12.3333L0 0L4.9848 2.32014L2.61702 3.41915V11.3565L0.49848 12.3333Z" transform="translate(21.4408 10.3036) scale(2)" fill="#FFD740" stroke="black" stroke-opacity="0.49" stroke-width="0.25"/>
<path d="M12.0881 5.86139L0.12462 0L0 2.9307L6.35562 6.59407L6.10638 9.64688L12.0881 5.86139Z" transform="translate(59.8237 23.4918) scale(2)" fill="#69F0AE" stroke="black" stroke-opacity="0.49" stroke-width="0.25"/>
<path d="M0 12.4555L5.73252 0L5.85714 9.40265L13.5836 13.9208L7.22797 17.8284L0 12.4555Z" transform="translate(32.6566 21.2938) scale(2)" fill="black" fill-opacity="0.2"/>
<path d="M9.34651 0L12.462 6.59407L0 4.51816L9.34651 0Z" transform="translate(2 36.1913) scale(2)" fill="black" fill-opacity="0.3"/>
<path d="M0 7.32674L3.1155 13.9208L2.99088 0L0.623101 1.46535L0.747721 6.83829L0 7.32674Z" transform="translate(20.6931 21.5379) scale(2)" fill="black" fill-opacity="0.5"/>
</svg>
