<svg width="16" height="48" viewBox="0 0 16 48" fill="none" xmlns="http://www.w3.org/2000/svg">
<path fill-rule="evenodd" clip-rule="evenodd" d="M0 7C0 3.13401 3.13401 0 7 0V0C10.866 0 14 3.13401 14 7V13C14 16.866 10.866 20 7 20V20C3.13401 20 0 16.866 0 13V7Z" transform="translate(1 1)" stroke="#6554C0" stroke-linecap="round" stroke-linejoin="round"/>
<path fill-rule="evenodd" clip-rule="evenodd" d="M0 0.5C0 0.223858 0.223858 0 0.5 0C0.776142 0 1 0.223858 1 0.5V17.5C1 17.7761 0.776142 18 0.5 18C0.223858 18 0 17.7761 0 17.5V0.5Z" transform="translate(7.5 30)" fill="url(#paint0_linear)"/>
<path fill-rule="evenodd" clip-rule="evenodd" d="M0 0.5C0 0.223858 0.223858 0 0.5 0C0.776142 0 1 0.223858 1 0.5V3.5C1 3.77614 0.776142 4 0.5 4C0.223858 4 0 3.77614 0 3.5V0.5Z" transform="translate(7.5 5)" fill="#6554C0"/>
<defs>
<linearGradient id="paint0_linear" x2="1" gradientUnits="userSpaceOnUse" gradientTransform="translate(0.5) scale(1 18) rotate(90)">
<stop stop-color="#6554C0"/>
<stop offset="1" stop-color="#6554C0" stop-opacity="0.01"/>
</linearGradient>
</defs>
</svg>
