<svg width="16" height="16" fill="none" xmlns="http://www.w3.org/2000/svg"><path opacity=".01" fill-rule="evenodd" clip-rule="evenodd" d="M0 8a8 8 0 1 1 16 0A8 8 0 0 1 0 8z" fill="#78909C"/><mask id="a" maskUnits="userSpaceOnUse" x="0" y="0" width="16" height="16"><path fill-rule="evenodd" clip-rule="evenodd" d="M0 8a8 8 0 1 1 16 0A8 8 0 0 1 0 8z" fill="#fff"/></mask><g mask="url(#a)"><path fill="#F7F9F9" d="M0 0h16v16H0z"/><path fill-rule="evenodd" clip-rule="evenodd" d="M0 0h16v16H0V0z" fill="#FEAC01"/><path d="M7 8.586l3.293-3.293a1 1 0 0 1 1.414 1.414l-4 4a1 1 0 0 1-1.414 0l-2-2a1 1 0 0 1 1.414-1.414L7 8.586z" fill="#fff"/><mask id="b" maskUnits="userSpaceOnUse" x="4" y="5" width="8" height="6"><path d="M3 3.586L6.293.293a1 1 0 0 1 1.414 1.414l-4 4a1 1 0 0 1-1.414 0l-2-2a1 1 0 0 1 1.414-1.414L3 3.586z" transform="translate(4 5)" fill="#fff"/></mask><g mask="url(#b)"><path fill-rule="evenodd" clip-rule="evenodd" d="M0 0h16v16H0V0z" fill="#fff"/></g></g></svg>